 http://www.scenespeeds.com/

 
http://www.imdb.com/title/tt1334512/
General
Complete name : Arthur.2011.CAM.XviD-NoGRP.avi
Format : AVI
Format/Info : Audio Video Interleave
File size : 704 MiB
Duration : 1h 44mn
Overall bit rate : 946 Kbps
Writing application : Lavf52.61.0
Video
ID : 0
Format : MPEG-4 Visual
Format profile : Simple@L1
Format settings, BVOP : No
Format settings, QPel : No
Format settings, GMC : No warppoints
Format settings, Matrix : Default (H.263)
Codec ID : FMP4
Duration : 1h 44mn
Bit rate : 806 Kbps
Width : 720 pixels
Height : 480 pixels
Display aspect ratio : 16:9
Frame rate : 25.000 fps
Standard : NTSC
Resolution : 8 bits
Colorimetry : 4:2:0
Scan type : Progressive
Bits/(Pixel*Frame) : 0.093
Stream size : 600 MiB (85%)
Writing library : Lavc52.66.0
Audio
ID : 1
Format : MPEG Audio
Format version : Version 1
Format profile : Layer 2
Codec ID : 50
Duration : 1h 44mn
Bit rate mode : Constant
Bit rate : 128 Kbps
Channel(s) : 2 channels
Sampling rate : 44.1 KHz
Stream size : 95.2 MiB (14%)
Alignment : Aligned on interleaves
Interleave, duration : 26 ms (0.65 video frame)


Plot
A drunken playboy stands to lose a wealthy inheritance when he falls for a woman his family doesn't like.

 
http://www.scenespeeds.com/

 
http://image.bayimg.com/jahcjaadl.jpg